<svg width="42" height="42" viewBox="0 0 42 42" fill="none" xmlns="http://www.w3.org/2000/svg">
<circle cx="21" cy="21" r="20" stroke="black" stroke-width="2"/>
<path d="M10 35.625H12.5M32 35.875H29.5M12.5 35.625L21 35.75L29.5 35.875M12.5 35.625L14 18.5M29.5 35.875L28 18.5M12.5 18.5H16M29.5 18.5H26M26 18.5V12.5C26 12.5 26 7 21 7C16 7 16 12.5 16 12.5V18.5M26 18.5H16M14.5 12.5H27.5M18.5 35.7132C18.5 35.7132 18.5 29.5 21 29.5C23.5 29.5 23.5 35.7868 23.5 35.7868" stroke="black" stroke-width="2" stroke-linecap="round"/>
</svg>
